<?xml version="1.0" standalone="no"?>
<!DOCTYPE svg PUBLIC "-//W3C//DTD SVG 20010904//EN"
 "http://www.w3.org/TR/2001/REC-SVG-20010904/DTD/svg10.dtd">
<svg version="1.0" xmlns="http://www.w3.org/2000/svg"
 width="200pt" height="200pt" viewBox="0 0 3342.000000 1341.000000"
 preserveAspectRatio="xMidYMid meet">
<metadata>
Created by potrace 1.16, written by Peter Selinger 2001-2019
</metadata>
<g transform="translate(0.000000,1341.000000) scale(0.100000,-0.100000)"
fill="#000000" stroke="none">
<path d="M9303 13287 c-17 -28 -1328 -1740 -1371 -1789 -8 -10 -12 -18 -9 -18
4 0 302 349 662 775 l656 775 53 0 52 0 2155 -2527 2154 -2528 3 -57 4 -58
-66 0 -66 0 0 -750 0 -750 75 0 75 0 0 330 0 330 73 0 c197 1 312 61 374 198
l24 52 52 0 52 0 73 -85 72 -84 0 -371 0 -370 75 0 75 0 0 220 0 220 54 0 53
0 62 -75 c53 -64 64 -85 81 -151 11 -43 32 -97 46 -121 31 -53 99 -100 160
-109 42 -6 49 -13 251 -251 166 -195 212 -243 228 -240 11 3 94 33 185 67 234
87 542 181 855 260 298 76 698 160 760 160 22 0 76 9 121 19 99 24 356 61 424
61 49 0 50 -1 50 -30 l0 -30 75 0 75 0 0 45 c0 29 4 45 13 45 6 0 89 7 182 15
94 8 196 15 228 15 l57 0 0 -60 0 -60 75 0 75 0 0 64 0 63 53 7 c28 3 96 6
150 6 l97 0 0 -70 0 -70 75 0 75 0 0 70 0 70 165 0 165 0 0 -70 0 -70 75 0 75
0 0 65 0 65 43 0 c23 0 100 -5 170 -10 122 -9 130 -11 163 -39 18 -17 53 -35
76 -42 37 -10 50 -9 88 6 25 10 81 20 128 22 l82 4 0 -138 c0 -152 -10 -204
-45 -239 -22 -22 -32 -24 -120 -24 -53 0 -105 5 -116 10 -22 12 -49 61 -49 90
0 18 -6 20 -70 20 l-70 0 20 -52 c46 -122 183 -192 327 -167 119 21 206 94
238 202 12 40 31 183 35 260 0 16 105 5 325 -33 595 -102 1146 -250 1707 -459
75 -28 138 -51 141 -51 2 0 55 109 117 242 62 134 118 246 124 250 6 4 22 8
35 8 30 0 162 59 178 80 7 8 28 47 47 85 26 54 35 88 40 147 l6 77 -38 3 c-37
3 -37 3 -40 52 -3 46 45 153 924 2045 510 1098 939 2020 953 2049 l25 52 52 0
52 0 807 -1007 c766 -956 895 -1114 813 -998 -20 28 -413 586 -874 1240 l-839
1190 -3088 -785 -3087 -785 0 -552 0 -552 -172 -231 -171 -230 -54 0 -53 0 -2
1154 -3 1154 -167 -229 -168 -229 0 -375 0 -375 -51 0 c-48 0 -397 159 -4293
1956 -2332 1076 -4274 1974 -4314 1995 -41 22 -80 39 -87 39 -7 0 -22 -15 -32
-33z m4609 -5614 c131 -154 122 -132 116 -285 -9 -232 -41 -267 -240 -268
l-108 0 0 320 0 320 79 0 78 0 75 -87z"/>
<path d="M8514 11673 c-1132 -1336 -1121 -1322 -1066 -1268 28 28 434 455 902
950 l852 900 61 2 62 2 910 -944 c1143 -1185 1228 -1274 1167 -1200 -199 240
-2094 2471 -2101 2473 -5 2 -359 -410 -787 -915z"/>
<path d="M8985 10766 c-248 -81 -447 -253 -547 -473 -51 -113 -58 -169 -58
-475 l0 -278 350 0 350 0 0 625 c0 494 -3 625 -12 625 -7 -1 -44 -11 -83 -24z"/>
<path d="M9320 10165 l0 -625 355 0 355 0 0 273 c0 194 -4 291 -14 337 -51
237 -215 439 -456 560 -71 36 -196 80 -226 80 -12 0 -14 -97 -14 -625z"/>
<path d="M25122 10354 c-5 -11 -170 -356 -367 -769 -197 -412 -366 -768 -377
-790 -11 -22 -16 -35 -11 -30 5 6 173 315 373 688 l363 678 53 -3 53 -3 1810
-2208 1811 -2209 0 -56 c0 -31 -11 -106 -24 -167 -14 -60 -23 -111 -22 -113 2
-1 118 -1 259 0 l256 3 -2070 2485 c-1139 1367 -2077 2491 -2084 2499 -11 11
-15 10 -23 -5z"/>
<path d="M8380 8730 l0 -600 350 0 350 0 0 600 0 600 -350 0 -350 0 0 -600z"/>
<path d="M9320 8730 l0 -600 355 0 355 0 0 600 0 600 -355 0 -355 0 0 -600z"/>
<path d="M25183 8610 c-166 -59 -309 -183 -382 -330 -56 -114 -71 -201 -71
-406 l0 -164 270 0 270 0 0 460 c0 521 9 474 -87 440z"/>
<path d="M25490 8170 l0 -460 271 0 271 0 -4 193 c-4 175 -7 198 -31 265 -52
148 -145 266 -281 357 -66 43 -195 105 -221 105 -3 0 -5 -207 -5 -460z"/>
<path d="M4082 8067 c7 -13 560 -931 1228 -2040 l1215 -2016 1963 -1 1964 0
-34 48 c-19 26 -524 744 -1123 1596 -600 854 -1098 1552 -1109 1557 -12 4
-934 202 -2051 439 -1116 237 -2038 434 -2048 436 -17 5 -17 4 -5 -19z"/>
<path d="M3793 8038 c-6 -7 -495 -843 -1088 -1858 -938 -1605 -1198 -2048
-1263 -2147 l-14 -23 147 0 148 0 -7 58 c-3 31 -9 118 -12 192 l-7 135 1029
1728 1029 1728 54 -3 55 -3 197 -279 c177 -248 225 -314 207 -281 -7 12 -460
759 -463 763 -1 1 -7 -3 -12 -10z"/>
<path d="M11435 7870 c-139 -30 -225 -159 -225 -339 0 -94 19 -169 65 -261 25
-49 35 -83 35 -116 0 -42 -4 -50 -60 -105 -140 -140 -175 -338 -94 -520 47
-103 154 -181 251 -181 60 0 142 42 202 103 46 47 51 49 102 49 l54 0 43 -70
43 -70 55 0 56 0 -23 38 c-13 20 -51 82 -86 136 -60 95 -63 103 -63 162 0 57
8 82 85 260 47 108 92 212 100 230 l14 34 -44 0 -43 0 -74 -175 -73 -175 -57
0 -56 0 -71 112 c-62 98 -71 118 -71 160 0 46 2 50 80 126 86 85 122 147 140
242 11 58 0 147 -26 210 -17 41 -77 105 -117 126 -38 20 -106 31 -142 24z
m146 -116 c22 -24 24 -34 27 -159 5 -164 -9 -220 -69 -288 -39 -45 -43 -47
-93 -47 -46 0 -54 3 -68 28 -34 58 -48 133 -48 261 0 209 14 231 145 231 75 0
84 -2 106 -26z m-54 -887 c101 -159 103 -163 103 -222 0 -72 -32 -128 -86
-151 -48 -20 -171 -18 -213 4 -61 31 -75 75 -79 245 -3 119 -1 159 13 200 25
76 38 87 104 87 l56 -1 102 -162z"/>
<path d="M10296 7123 c-65 -406 -121 -744 -124 -750 -3 -10 14 -13 65 -13 l70
0 22 183 c12 100 24 197 28 215 l5 32 173 0 173 0 6 -32 c8 -43 56 -377 56
-389 0 -5 32 -9 70 -9 39 0 70 3 70 7 0 9 -238 1428 -246 1466 l-6 27 -121 0
-122 0 -119 -737z m299 550 c4 -32 23 -175 42 -318 19 -143 37 -302 40 -353
l6 -93 -144 3 -144 3 -3 38 c-2 20 15 178 37 350 22 171 43 338 46 370 l6 57
54 0 54 0 6 -57z"/>
<path d="M12260 7110 l0 -752 183 4 c159 4 189 8 240 27 79 31 134 76 169 138
59 104 61 123 65 551 3 259 1 417 -7 465 -23 152 -93 245 -213 287 -52 19 -92
23 -249 27 l-188 6 0 -753z m430 615 c19 -12 43 -36 55 -55 19 -34 20 -50 20
-555 l0 -520 -23 -43 c-35 -65 -79 -82 -219 -82 l-113 0 0 641 0 641 123 -3
c100 -3 128 -8 157 -24z"/>
<path d="M24730 6905 l0 -515 270 0 270 0 0 515 0 515 -270 0 -270 0 0 -515z"/>
<path d="M25490 6905 l0 -515 270 0 270 0 0 515 0 515 -270 0 -270 0 0 -515z"/>
<path d="M3658 6516 c-128 -52 -238 -150 -286 -253 -25 -53 -27 -70 -30 -205
l-4 -148 201 0 201 0 0 315 c0 245 -3 315 -12 315 -7 0 -39 -11 -70 -24z"/>
<path d="M3930 6226 l0 -316 200 0 200 0 0 118 c0 191 -35 281 -148 382 -53
47 -168 112 -224 125 l-28 7 0 -316z"/>
<path d="M3340 5445 l0 -305 200 0 200 0 0 305 0 305 -200 0 -200 0 0 -305z"/>
<path d="M3930 5445 l0 -305 200 0 200 0 0 305 0 305 -200 0 -200 0 0 -305z"/>
<path d="M20175 5363 c-1020 -29 -2421 -198 -3893 -468 -166 -30 -324 -55
-351 -55 l-50 0 -3 38 -3 37 -72 3 -73 3 0 -66 c0 -36 -2 -65 -4 -65 -9 0
-567 -114 -829 -170 -157 -33 -303 -60 -326 -60 -30 0 -53 9 -87 33 -38 27
-54 32 -102 32 -46 0 -65 -5 -98 -28 -23 -15 -47 -39 -54 -52 -12 -22 -20 -25
-72 -25 l-58 0 0 50 0 50 -70 0 -69 0 -3 -102 -3 -102 -80 -18 c-44 -9 -106
-18 -137 -18 l-56 0 -18 52 c-24 73 -109 158 -182 182 -113 38 -214 13 -303
-74 -67 -65 -95 -130 -106 -247 l-8 -77 -300 -68 c-165 -37 -321 -68 -347 -68
l-48 0 0 350 c0 395 2 409 64 435 41 17 125 19 177 5 57 -16 72 -48 77 -162
l4 -98 74 0 73 0 -4 28 c-2 15 -7 47 -10 72 -10 77 -34 137 -77 185 -140 159
-394 117 -484 -80 -39 -84 -44 -142 -44 -471 0 -172 -4 -315 -9 -318 -10 -6
-945 -215 -1366 -305 -1768 -378 -3425 -660 -5140 -875 -1293 -163 -2456 -270
-3880 -360 -209 -13 -206 -13 430 -15 2141 -4 4469 150 6705 445 650 85 1228
170 2285 335 1367 213 1753 271 1843 276 89 6 95 4 162 -26 127 -59 241 -40
339 56 55 54 57 55 146 69 50 7 120 14 158 14 l67 0 0 -80 0 -80 75 0 75 0 0
98 0 99 94 11 c52 7 127 12 165 12 l71 0 0 -110 0 -110 75 0 75 0 0 129 0 129
73 7 c39 4 96 5 126 3 l55 -3 11 -50 c23 -99 76 -170 152 -201 64 -27 120 -34
175 -23 145 31 227 129 244 292 l7 65 51 5 c28 4 94 9 147 13 l96 7 5 -120 c5
-128 27 -200 69 -226 15 -9 19 -24 19 -64 0 -29 -1 -53 -2 -53 -30 0 -608 -48
-853 -70 -983 -91 -1887 -206 -4035 -515 -2222 -319 -3453 -465 -4515 -533
l-120 -8 180 -9 c110 -5 419 -3 795 4 863 16 1298 35 2765 116 965 54 1303 71
1665 85 409 16 791 35 1640 85 1488 87 1869 100 2710 92 338 -3 692 -10 785
-16 458 -29 818 -64 1355 -132 2287 -287 3800 -821 4840 -1709 160 -136 434
-419 560 -578 l105 -132 1452 0 c799 0 1453 3 1453 7 0 14 -173 234 -278 354
-416 474 -981 906 -1742 1331 -248 139 -766 397 -1025 512 -1314 581 -2746
946 -4280 1091 -93 9 -201 19 -240 23 l-70 7 -3 81 -3 82 -49 4 c-87 9 -90 15
-90 210 l0 168 53 0 c30 0 115 -3 190 -7 l137 -6 0 -224 0 -223 75 0 75 0 0
215 0 215 68 0 c37 0 97 -3 135 -7 l67 -6 0 -41 c0 -179 67 -305 190 -360 119
-54 237 -31 331 63 60 60 86 117 98 215 l6 51 85 -1 c47 0 106 -4 133 -8 l47
-7 0 -165 0 -164 75 0 75 0 0 150 0 150 48 -1 c26 0 99 -8 162 -17 l115 -17 3
-133 3 -132 74 0 75 0 0 110 0 110 59 0 c123 0 825 -143 1261 -256 1424 -372
2619 -924 3607 -1665 624 -469 1169 -1017 1607 -1616 l68 -93 2749 0 c1666 0
2748 4 2745 9 -20 31 -735 580 -1240 950 -3185 2338 -6266 3722 -9296 4175
-844 126 -1734 182 -2525 159z m-6659 -876 c20 -24 24 -39 24 -96 l0 -68 -97
-21 c-54 -12 -126 -22 -160 -22 l-63 0 0 70 c0 79 17 129 51 154 20 14 43 17
122 14 94 -3 100 -4 123 -31z m4257 -634 c8 -126 28 -213 62 -265 18 -27 25
-51 25 -88 l0 -50 -180 0 -180 0 0 249 0 250 28 4 c15 2 75 5 133 6 l106 1 6
-107z m678 100 l217 -6 4 -166 c3 -146 6 -171 26 -212 14 -29 22 -64 22 -97
l0 -52 -68 0 c-38 0 -144 3 -235 7 l-167 6 0 49 c0 38 7 59 29 91 29 43 54
113 66 180 l6 37 -71 0 -70 0 0 -65 c0 -74 -18 -128 -48 -144 -12 -6 -55 -11
-97 -11 -133 0 -145 19 -145 240 l0 150 158 0 c86 0 254 -3 373 -7z m-1103
-140 c-3 -150 -17 -194 -69 -220 -22 -12 -21 -13 22 -13 54 0 59 -7 59 -81 l0
-49 -66 0 -66 0 4 65 4 65 -66 0 c-128 0 -150 33 -150 227 l0 132 73 4 c39 1
114 4 165 5 l94 2 -4 -137z m-478 40 c1 -113 16 -217 40 -262 13 -26 20 -60
20 -94 l0 -54 -167 -6 c-91 -4 -213 -7 -270 -7 l-103 0 0 240 0 240 58 1 c31
1 102 5 157 9 55 3 137 7 183 8 l82 2 0 -77z m-630 -203 l0 -240 -110 0 -110
0 0 74 0 73 -50 5 c-84 8 -90 19 -90 174 l0 132 88 7 c48 3 96 7 107 9 11 2
53 4 93 5 l72 1 0 -240z m3733 219 l127 -12 0 -81 c0 -100 -13 -149 -47 -176
-22 -17 -40 -20 -117 -20 -142 0 -166 28 -166 200 l0 100 38 0 c20 0 94 -5
165 -11z m-4693 -150 c0 -80 -9 -113 -39 -136 -20 -16 -175 -17 -203 -2 -29
16 -48 70 -48 138 0 60 0 60 33 65 61 11 92 13 175 15 l82 1 0 -81z"/>
</g>
</svg>
